<?xml version="1.0" standalone="no"?>
<!DOCTYPE svg PUBLIC "-//W3C//DTD SVG 20010904//EN"
 "http://www.w3.org/TR/2001/REC-SVG-20010904/DTD/svg10.dtd">
<svg version="1.0" xmlns="http://www.w3.org/2000/svg"
 width="1638.000000pt" height="436.000000pt" viewBox="0 0 1638.000000 436.000000"
 preserveAspectRatio="xMidYMid meet">

<g transform="translate(0.000000,436.000000) scale(0.100000,-0.100000)"
fill="#000000" stroke="none">
<path d="M2361 3864 c-276 -40 -516 -140 -747 -311 -297 -219 -501 -492 -614
-818 -58 -167 -62 -197 -67 -515 -4 -271 -3 -303 16 -396 53 -259 175 -516
336 -709 196 -235 338 -347 620 -488 114 -57 185 -80 349 -114 114 -23 156
-26 321 -27 263 0 497 42 688 125 104 45 287 149 367 209 355 265 612 700 660
1115 13 117 13 387 0 494 -27 209 -117 457 -237 650 -113 181 -296 375 -461
489 -104 72 -297 178 -368 203 -142 49 -266 81 -364 94 -130 18 -374 17 -499
-1z m376 -195 c573 -49 1065 -420 1273 -960 53 -139 100 -399 100 -557 0 -99
-32 -296 -66 -402 -149 -473 -507 -839 -964 -988 -511 -167 -1094 -43 -1479
314 -204 189 -362 450 -431 711 -50 190 -66 480 -35 648 82 457 389 875 789
1077 162 82 380 144 548 157 57 5 111 9 120 10 9 0 74 -4 145 -10z"/>
<path d="M2914 3095 c-58 -16 -108 -41 -174 -90 -70 -52 -382 -373 -427 -440
-29 -43 -58 -72 -100 -97 -88 -55 -439 -416 -477 -491 -99 -198 -62 -408 99
-573 52 -52 90 -81 149 -110 70 -34 88 -39 171 -42 142 -6 247 30 363 127 85
71 329 322 373 384 49 69 84 104 153 152 71 49 369 348 411 412 67 102 80 146
80 278 0 118 -1 121 -38 199 -68 143 -215 265 -355 295 -70 15 -165 13 -228
-4z m196 -201 c177 -52 270 -226 210 -389 -20 -53 -41 -78 -171 -209 -82 -81
-149 -152 -149 -157 0 -19 -22 -8 -28 13 -16 64 -85 178 -136 226 -46 44 -61
52 -92 52 -29 0 -46 -8 -71 -32 -47 -45 -43 -71 21 -159 61 -84 79 -131 79
-203 0 -100 -28 -143 -227 -344 -195 -198 -239 -230 -332 -239 -170 -18 -351
161 -330 326 12 90 47 144 193 291 75 77 141 147 146 156 11 20 37 0 37 -28 0
-12 14 -48 31 -81 84 -165 188 -229 260 -158 41 42 38 75 -15 152 -64 95 -76
123 -83 193 -5 58 -3 71 26 133 28 59 56 92 204 239 170 169 216 205 294 223
56 13 74 13 133 -5z"/>
<path d="M6920 3161 c-104 -32 -170 -120 -170 -226 0 -128 96 -216 236 -216
164 0 274 134 231 282 -36 121 -176 196 -297 160z"/>
<path d="M5787 3124 c-11 -12 -8 -1634 3 -1695 13 -66 42 -111 99 -149 82 -55
129 -65 313 -65 122 0 170 3 180 13 9 9 13 54 13 160 l0 147 -65 13 c-35 7
-69 17 -75 23 -6 6 -12 278 -15 782 l-5 772 -221 3 c-121 1 -223 -1 -227 -4z"/>
<path d="M9514 3122 c-9 -5 -12 -246 -12 -917 0 -500 2 -922 4 -938 l6 -27
228 0 229 0 3 198 3 198 39 47 c21 26 45 47 52 47 8 0 25 -17 38 -37 14 -21
53 -76 87 -123 34 -47 99 -137 145 -201 46 -64 90 -119 99 -123 24 -9 555 -8
555 2 0 4 -56 77 -123 162 -68 85 -196 247 -285 358 -89 112 -162 209 -162
215 0 5 46 58 103 116 133 138 436 471 448 494 9 16 -5 17 -258 15 l-267 -3
-173 -205 c-95 -113 -197 -235 -226 -272 -28 -37 -58 -67 -64 -67 -10 -1 -13
115 -15 532 l-3 532 -220 2 c-121 2 -225 0 -231 -5z"/>
<path d="M12125 2877 c-4 -18 -5 -51 -3 -72 l3 -40 145 -6 c80 -4 281 -7 448
-8 l302 -1 0 -385 c0 -311 -3 -391 -14 -413 -23 -44 -131 -141 -183 -164 -28
-13 -78 -23 -120 -26 -64 -4 -79 -1 -127 22 -98 48 -149 133 -148 247 0 85 25
143 88 203 89 86 203 120 307 93 l59 -16 14 36 c9 19 18 56 21 82 5 44 4 48
-23 60 -16 7 -63 15 -104 18 -204 14 -395 -97 -486 -281 -39 -80 -39 -80 -39
-201 0 -115 1 -123 32 -185 60 -123 183 -217 313 -240 119 -22 231 4 345 79
l60 40 5 -237 5 -237 74 -3 c53 -2 77 1 82 10 5 7 9 182 9 388 0 239 4 389 11
414 15 53 82 158 127 197 83 73 216 103 290 65 44 -23 99 -92 118 -149 22 -66
15 -200 -15 -279 -34 -88 -110 -197 -189 -268 l-73 -65 65 -43 c35 -23 70 -42
76 -42 23 0 93 64 152 138 173 218 216 488 110 686 -36 68 -125 156 -187 186
-42 21 -65 25 -140 25 -80 0 -97 -3 -155 -31 -36 -17 -94 -57 -128 -89 l-62
-58 2 211 3 211 435 3 435 3 3 78 3 77 -970 0 -970 0 -6 -33z"/>
<path d="M14174 2896 c-3 -7 -4 -40 -2 -72 l3 -59 95 -6 c52 -4 225 -7 383 -8
l288 -1 -3 -224 -3 -224 -30 -43 c-45 -64 -85 -81 -172 -76 -95 5 -166 40
-232 114 -28 31 -57 71 -65 88 -27 56 -35 56 -109 9 l-67 -44 39 -78 c154
-306 352 -583 586 -818 82 -83 167 -164 188 -179 l38 -28 44 49 c24 27 44 53
45 57 0 5 -57 63 -126 130 -69 66 -162 164 -206 216 -74 90 -218 293 -218 309
0 4 46 7 102 7 89 0 110 3 153 25 101 49 171 138 195 247 6 26 12 141 12 256
l0 207 48 0 c26 0 74 3 107 6 l61 7 6 57 c11 99 71 90 -580 90 -476 0 -576 -2
-580 -14z"/>
<path d="M8475 2643 c-16 -2 -64 -15 -105 -30 -75 -27 -132 -73 -202 -163
l-27 -35 0 98 -1 97 -230 0 -230 0 0 -685 0 -685 229 0 229 0 5 403 c5 439 8
469 64 568 41 72 87 108 149 115 95 12 174 -28 216 -110 19 -36 23 -67 31
-246 5 -113 6 -317 4 -455 -3 -137 -3 -256 0 -262 4 -10 58 -13 228 -13 l223
0 7 64 c4 36 5 264 2 508 -4 373 -7 452 -21 502 -38 135 -116 234 -222 283
-89 41 -237 60 -349 46z"/>
<path d="M6760 1925 l0 -685 230 0 230 0 0 685 0 685 -230 0 -230 0 0 -685z"/>
<path d="M11252 1968 l3 -123 316 -3 316 -2 5 117 c3 65 3 121 1 126 -2 4
-148 7 -324 7 l-320 0 3 -122z"/>
</g>
</svg>
